<svg xmlns="http://www.w3.org/2000/svg" viewBox="0 0 512 512" enable-background="new 0 0 512 512">
    <g>
        <path d="m69.2,69.2c-77.6,77.6-77.6,204 0,281.6l144.2,144.2c7.9,7.9 20.7,7.9 28.7,0l57.3-57.3c7.9-7.9 7.9-20.7 0-28.7l-144.2-144.1c-30.2-30.2-30.2-79.4 0-109.7 30.2-30.2 79.4-30.2 109.7,0l144.2,144.2c7.9,7.9 20.7,7.9 28.7,0l57.3-57.3c7.9-7.9 7.9-20.7 0-28.7l-144.3-144.2c-77.6-77.6-203.9-77.6-281.6,1.42109e-14zm158.6,382.9l-25.4-25.4 28.6-28.7 25.4,25.4-28.6,28.7zm-101.3-325.6c-46,46-46,120.9 0,167l75.9,75.9-28.7,28.6-75.9-75.9c-61.8-61.8-61.8-162.4 0.1-224.2 61.8-61.8 162.4-61.8 224.3,0l75.9,75.9-28.7,28.7-75.9-75.9c-46-46.1-120.9-46.1-167-0.1zm296.9,130l-25.4-25.5 28.7-28.7 25.4,25.4-28.7,28.8z"/>
    </g>
</svg>
